# xmcd
#
# Track frame offsets: 
#        150
#        11325
#        21659
#        33557
#        47206
#        59195
#        69685
#        82784
#        94595
#        104569
#        114231
#        126599
#        137423
#        147749
#        159899
#        170700
#        182422
#        192709
#        205061
#        215969
#
# Disc length: 3042 seconds
#
# Revision: 0
# Processed by: cddbd v1.5.2PL0 Copyright (c) Steve Scherf et al.
# Submitted via: ExactAudioCopy v0.99pb5
#
DISCID=330be014
DTITLE=Various Artist - Country and Western Hits And Rarities CD05
DYEAR=1900
DGENRE=
TTITLE0=Stonewall Jackson - Waterloo
TTITLE1=Faron Young - Live Fast, Love Hard, Die Young
TTITLE2=Don Gibson - Bad Bad Day
TTITLE3=Johnny Cash - Don't Take Your Guns To Town
TTITLE4=Skeets McDonald - You Better Not Go
TTITLE5=Johnny Horton - The First Train Headin' South
TTITLE6=Leroy Van Dyke - Auctioneer
TTITLE7=Carl Smith - Loose Talk
TTITLE8=Hank Thompson - A Six Pack To Go
TTITLE9=Marty Robbins - Just Married
TTITLE10=Tommy Collins - Watcha Gonna Do Now
TTITLE11=Marvion Rainwater - Nothin' Needs Nothin'
TTITLE12=Al Terry - Good Deal Lucille
TTITLE13=Jim Reeves - Mexican Joe
TTITLE14=Faron Young - I Can't Dance
TTITLE15=Johnny Horton - Lost Highway
TTITLE16=Johnny Cash - The Ways Of A Woman In Love
TTITLE17=Jimmy Heap - Release Me
TTITLE18=Don Gibson - Look Who's Blue
TTITLE19=Bobby Bare - Lynching Party
EXTD=
EXTT0=
EXTT1=
EXTT2=
EXTT3=
EXTT4=
EXTT5=
EXTT6=
EXTT7=
EXTT8=
EXTT9=
EXTT10=
EXTT11=
EXTT12=
EXTT13=
EXTT14=
EXTT15=
EXTT16=
EXTT17=
EXTT18=
EXTT19=
PLAYORDER=
